<svg xmlns="http://www.w3.org/2000/svg" xmlns:xlink="http://www.w3.org/1999/xlink" width="500" zoomAndPan="magnify" viewBox="0 0 375 374.999991" height="500" preserveAspectRatio="xMidYMid meet" version="1.0"><defs><clipPath id="181cd21679"><path d="M 23.183594 0 L 351.683594 0 L 351.683594 375 L 23.183594 375 Z M 23.183594 0 " clip-rule="nonzero"/></clipPath></defs><path fill="#e9e0e9" d="M 294.019531 125.949219 C 293.351562 124.722656 292.476562 123.515625 290.65625 122.59375 L 264.632812 107.566406 C 264.273438 107.359375 263.890625 107.203125 263.480469 107.097656 C 263.351562 107.066406 263.222656 107.066406 263.082031 107.046875 C 262.8125 107 262.542969 106.953125 262.273438 106.953125 L 262.222656 106.953125 L 262.222656 106.964844 C 261.449219 106.976562 260.691406 107.183594 260.027344 107.566406 L 201.476562 141.375 L 201.425781 141.273438 L 196.699219 144.007812 C 191 147.292969 183.992188 147.292969 178.292969 144.007812 L 152.695312 129.234375 C 151.277344 128.410156 150.402344 126.890625 150.402344 125.246094 C 150.402344 123.601562 151.277344 122.082031 152.695312 121.257812 L 178.292969 106.492188 C 183.992188 103.203125 191 103.203125 196.699219 106.492188 L 202.863281 110.046875 C 204.289062 110.867188 206.03125 110.867188 207.457031 110.046875 L 231.296875 96.289062 C 232.722656 95.46875 233.59375 93.949219 233.59375 92.304688 C 233.59375 90.660156 232.722656 89.140625 231.296875 88.320312 L 196.699219 68.339844 C 191 65.054688 183.992188 65.054688 178.292969 68.339844 L 93.539062 117.277344 C 87.40625 120.820312 87.40625 129.667969 93.539062 133.210938 L 178.292969 182.148438 C 183.992188 185.433594 191 185.433594 196.699219 182.148438 L 262.222656 144.316406 L 262.222656 230.492188 L 241.167969 242.6875 L 196.699219 268.4375 C 195.289062 269.246094 193.785156 269.863281 192.21875 270.285156 C 187.523438 271.53125 182.515625 270.863281 178.292969 268.4375 L 117.367188 233.265625 C 114.519531 231.621094 112.765625 228.578125 112.765625 225.292969 L 112.765625 175.0625 C 112.765625 173.417969 111.886719 171.890625 110.464844 171.082031 L 86.636719 157.308594 C 85.210938 156.484375 83.457031 156.484375 82.03125 157.308594 C 80.609375 158.128906 79.734375 159.65625 79.734375 161.300781 L 79.734375 244.367188 C 79.734375 247.65625 81.488281 250.683594 84.335938 252.339844 L 178.292969 306.589844 C 181.050781 308.179688 184.183594 309.015625 187.367188 309.042969 L 187.433594 309.042969 C 187.882812 309.042969 188.332031 308.988281 188.78125 308.964844 C 189.125 308.9375 189.472656 308.9375 189.820312 308.898438 C 190.292969 308.835938 190.769531 308.71875 191.230469 308.628906 C 191.554688 308.554688 191.875 308.515625 192.183594 308.4375 C 192.695312 308.308594 193.183594 308.117188 193.671875 307.9375 C 193.953125 307.835938 194.222656 307.769531 194.480469 307.667969 C 195.238281 307.359375 195.980469 307 196.6875 306.589844 L 277.753906 259.785156 L 290.605469 252.492188 C 293.480469 250.863281 295.261719 247.808594 295.261719 244.496094 L 295.261719 130.554688 C 295.261719 128.910156 294.8125 127.328125 294.019531 125.949219 " fill-opacity="1" fill-rule="nonzero"/><g clip-path="url(#181cd21679)"><path fill="#9492a3" d="M 196.46875 40.824219 C 193.734375 39.246094 190.652344 38.40625 187.496094 38.375 C 184.351562 38.40625 181.257812 39.25 178.523438 40.824219 L 65.304688 106.191406 C 59.625 109.472656 56.128906 115.527344 56.125 122.085938 L 56.125 252.832031 C 56.125 259.390625 59.625 265.449219 65.304688 268.722656 L 178.523438 334.089844 C 181.296875 335.695312 184.429688 336.542969 187.625 336.554688 C 190.820312 336.542969 193.964844 335.695312 196.738281 334.101562 L 309.460938 269.019531 C 315.136719 265.746094 318.640625 259.6875 318.640625 253.125 L 318.640625 215.347656 C 318.625 213.703125 319.511719 212.191406 320.925781 211.367188 L 344.929688 197.515625 C 346.34375 196.695312 348.101562 196.695312 349.511719 197.515625 C 350.9375 198.339844 351.8125 199.851562 351.8125 201.496094 L 351.8125 271.855469 C 351.796875 274.859375 351.054688 277.8125 349.640625 280.457031 C 349.28125 282.191406 347.394531 284.230469 344.726562 286.324219 C 344.671875 286.375 344.597656 286.425781 344.53125 286.476562 C 337.753906 291.753906 326.535156 297.195312 324.542969 298.351562 L 196.738281 372.140625 C 193.875 373.78125 190.617188 374.628906 187.316406 374.589844 L 187.175781 374.589844 L 187.175781 374.578125 C 184.132812 374.5 181.15625 373.652344 178.523438 372.140625 L 32.359375 287.75 C 26.679688 284.476562 23.183594 278.414062 23.183594 271.855469 L 23.183594 103.074219 C 23.183594 100.128906 23.554688 97.125 24.847656 94.585938 C 25.027344 93.925781 26.796875 90.683594 30.445312 88.015625 C 31.824219 87.089844 34.253906 85.84375 36.535156 84.527344 L 178.113281 2.789062 C 180.964844 1.144531 184.210938 0.300781 187.496094 0.339844 C 190.796875 0.300781 194.03125 1.144531 196.882812 2.789062 L 327.523438 78.207031 C 327.820312 78.386719 328.050781 78.605469 328.308594 78.8125 L 329.964844 79.757812 C 334.40625 82.113281 341.363281 85.703125 345.136719 88.570312 L 345.445312 88.800781 C 345.496094 88.839844 345.546875 88.878906 345.597656 88.910156 C 345.726562 89.023438 345.816406 89.132812 345.945312 89.25 C 347.332031 90.40625 348.511719 91.769531 349.425781 93.292969 C 349.449219 93.3125 349.460938 93.339844 349.488281 93.363281 L 349.476562 93.367188 C 351.003906 95.914062 351.8125 98.828125 351.8125 101.800781 L 351.8125 163.601562 C 351.8125 165.242188 350.9375 166.757812 349.515625 167.582031 L 325.507812 181.445312 C 324.097656 182.253906 322.339844 182.253906 320.925781 181.445312 C 319.5 180.621094 318.628906 179.109375 318.628906 177.464844 L 318.628906 121.730469 C 318.628906 115.167969 315.125 109.101562 309.4375 105.824219 L 196.472656 40.820312 L 196.472656 40.824219 Z M 196.46875 40.824219 " fill-opacity="1" fill-rule="nonzero"/></g></svg>