<svg xmlns="http://www.w3.org/2000/svg" xmlns:xlink="http://www.w3.org/1999/xlink" width="500" zoomAndPan="magnify" viewBox="0 0 375 374.999991" height="500" preserveAspectRatio="xMidYMid meet" version="1.0"><defs><g/><clipPath id="48491f1482"><rect x="0" width="352" y="0" height="152"/></clipPath><clipPath id="4607905cfd"><path d="M 92.527344 7.03125 L 282.277344 7.03125 L 282.277344 223.78125 L 92.527344 223.78125 Z M 92.527344 7.03125 " clip-rule="nonzero"/></clipPath></defs><g transform="matrix(1, 0, 0, 1, 14, 223)"><g clip-path="url(#48491f1482)"><g fill="#e9e0e9" fill-opacity="1"><g transform="translate(37.005305, 71.560454)"><g><path d="M 61.234375 -58.3125 L 61.234375 -46.65625 L 37.90625 -46.65625 L 37.90625 0 L 26.234375 0 L 26.234375 -46.65625 L 2.921875 -46.65625 L 2.921875 -58.3125 Z M 61.234375 -58.3125 "/></g></g></g><g fill="#e9e0e9" fill-opacity="1"><g transform="translate(106.610726, 71.560454)"><g><path d="M 61.234375 -58.3125 L 61.234375 -46.65625 L 14.578125 -46.65625 L 14.578125 -34.984375 L 61.234375 -34.984375 L 61.234375 -23.328125 L 14.578125 -23.328125 L 14.578125 -11.65625 L 61.234375 -11.65625 L 61.234375 0 L 14.578125 0 C 12.441406 0 10.484375 -0.519531 8.703125 -1.5625 C 6.929688 -2.613281 5.523438 -4.023438 4.484375 -5.796875 C 3.441406 -7.566406 2.921875 -9.519531 2.921875 -11.65625 L 2.921875 -46.65625 C 2.921875 -48.789062 3.441406 -50.742188 4.484375 -52.515625 C 5.523438 -54.285156 6.929688 -55.691406 8.703125 -56.734375 C 10.484375 -57.785156 12.441406 -58.3125 14.578125 -58.3125 Z M 61.234375 -58.3125 "/></g></g></g><g fill="#e9e0e9" fill-opacity="1"><g transform="translate(176.216148, 71.560454)"><g><path d="M 61.234375 0 L 14.578125 0 C 12.441406 0 10.484375 -0.519531 8.703125 -1.5625 C 6.929688 -2.613281 5.523438 -4.023438 4.484375 -5.796875 C 3.441406 -7.566406 2.921875 -9.519531 2.921875 -11.65625 L 2.921875 -46.65625 C 2.921875 -48.789062 3.441406 -50.742188 4.484375 -52.515625 C 5.523438 -54.285156 6.929688 -55.691406 8.703125 -56.734375 C 10.484375 -57.785156 12.441406 -58.3125 14.578125 -58.3125 L 61.234375 -58.3125 L 61.234375 -46.65625 L 14.578125 -46.65625 L 14.578125 -11.65625 L 61.234375 -11.65625 Z M 61.234375 0 "/></g></g></g><g fill="#e9e0e9" fill-opacity="1"><g transform="translate(245.821569, 71.560454)"><g><path d="M 49.5625 -34.984375 L 49.5625 -58.3125 L 61.234375 -58.3125 L 61.234375 0 L 49.5625 0 L 49.5625 -23.328125 L 14.578125 -23.328125 L 14.578125 0 L 2.921875 0 L 2.921875 -58.3125 L 14.578125 -58.3125 L 14.578125 -34.984375 Z M 49.5625 -34.984375 "/></g></g></g><g fill="#9492a3" fill-opacity="1"><g transform="translate(2.20863, 135.877774)"><g><path d="M 32.078125 0 C 29.453125 0 27.019531 -0.921875 24.78125 -2.765625 L 5.109375 -19.6875 C 3.648438 -21 2.921875 -22.550781 2.921875 -24.34375 L 2.921875 -58.3125 L 14.578125 -58.3125 L 14.578125 -26.96875 L 32.078125 -11.875 L 49.5625 -26.96875 L 49.5625 -58.3125 L 61.234375 -58.3125 L 61.15625 -24.34375 C 61.15625 -22.5 60.453125 -20.945312 59.046875 -19.6875 L 39.359375 -2.765625 C 37.222656 -0.921875 34.796875 0 32.078125 0 Z M 32.078125 0 "/></g></g></g><g fill="#9492a3" fill-opacity="1"><g transform="translate(71.814051, 135.877774)"><g><path d="M 61.234375 -58.3125 L 61.234375 -46.65625 L 14.578125 -46.65625 L 14.578125 -34.984375 L 61.234375 -34.984375 L 61.234375 -23.328125 L 14.578125 -23.328125 L 14.578125 -11.65625 L 61.234375 -11.65625 L 61.234375 0 L 14.578125 0 C 12.441406 0 10.484375 -0.519531 8.703125 -1.5625 C 6.929688 -2.613281 5.523438 -4.023438 4.484375 -5.796875 C 3.441406 -7.566406 2.921875 -9.519531 2.921875 -11.65625 L 2.921875 -46.65625 C 2.921875 -48.789062 3.441406 -50.742188 4.484375 -52.515625 C 5.523438 -54.285156 6.929688 -55.691406 8.703125 -56.734375 C 10.484375 -57.785156 12.441406 -58.3125 14.578125 -58.3125 Z M 61.234375 -58.3125 "/></g></g></g><g fill="#9492a3" fill-opacity="1"><g transform="translate(141.419472, 135.877774)"><g><path d="M 61.234375 -46.65625 L 61.234375 -34.984375 C 61.234375 -32.847656 60.707031 -30.890625 59.65625 -29.109375 C 58.613281 -27.335938 57.203125 -25.929688 55.421875 -24.890625 C 53.648438 -23.847656 51.695312 -23.328125 49.5625 -23.328125 L 37.90625 -23.328125 L 49.5625 -11.65625 L 61.234375 -11.65625 L 61.234375 0 L 47.234375 0 C 45.578125 0 44.164062 -0.582031 43 -1.75 L 21.4375 -23.328125 L 14.578125 -23.328125 L 14.578125 0 L 2.921875 0 L 2.921875 -58.3125 L 49.5625 -58.3125 C 51.695312 -58.3125 53.648438 -57.785156 55.421875 -56.734375 C 57.203125 -55.691406 58.613281 -54.285156 59.65625 -52.515625 C 60.707031 -50.742188 61.234375 -48.789062 61.234375 -46.65625 Z M 49.5625 -46.65625 L 14.578125 -46.65625 L 14.578125 -34.984375 L 49.5625 -34.984375 Z M 49.5625 -46.65625 "/></g></g></g><g fill="#9492a3" fill-opacity="1"><g transform="translate(211.024894, 135.877774)"><g><path d="M 61.234375 -58.3125 L 61.234375 -46.65625 L 14.578125 -46.65625 L 14.578125 -34.984375 L 49.5625 -34.984375 C 51.695312 -34.984375 53.648438 -34.460938 55.421875 -33.421875 C 57.203125 -32.378906 58.613281 -30.96875 59.65625 -29.1875 C 60.707031 -27.414062 61.234375 -25.460938 61.234375 -23.328125 L 61.234375 -11.65625 C 61.234375 -9.519531 60.707031 -7.566406 59.65625 -5.796875 C 58.613281 -4.023438 57.203125 -2.613281 55.421875 -1.5625 C 53.648438 -0.519531 51.695312 0 49.5625 0 L 2.921875 0 L 2.921875 -11.65625 L 49.5625 -11.65625 L 49.5625 -23.328125 L 14.578125 -23.328125 C 12.441406 -23.328125 10.484375 -23.847656 8.703125 -24.890625 C 6.929688 -25.929688 5.523438 -27.335938 4.484375 -29.109375 C 3.441406 -30.890625 2.921875 -32.847656 2.921875 -34.984375 L 2.921875 -46.65625 C 2.921875 -48.789062 3.441406 -50.742188 4.484375 -52.515625 C 5.523438 -54.285156 6.929688 -55.691406 8.703125 -56.734375 C 10.484375 -57.785156 12.441406 -58.3125 14.578125 -58.3125 Z M 61.234375 -58.3125 "/></g></g></g><g fill="#9492a3" fill-opacity="1"><g transform="translate(280.630315, 135.877774)"><g><path d="M 61.234375 -58.3125 L 61.234375 -46.65625 L 14.578125 -46.65625 L 14.578125 -34.984375 L 61.234375 -34.984375 L 61.234375 -23.328125 L 14.578125 -23.328125 L 14.578125 -11.65625 L 61.234375 -11.65625 L 61.234375 0 L 14.578125 0 C 12.441406 0 10.484375 -0.519531 8.703125 -1.5625 C 6.929688 -2.613281 5.523438 -4.023438 4.484375 -5.796875 C 3.441406 -7.566406 2.921875 -9.519531 2.921875 -11.65625 L 2.921875 -46.65625 C 2.921875 -48.789062 3.441406 -50.742188 4.484375 -52.515625 C 5.523438 -54.285156 6.929688 -55.691406 8.703125 -56.734375 C 10.484375 -57.785156 12.441406 -58.3125 14.578125 -58.3125 Z M 61.234375 -58.3125 "/></g></g></g></g></g><path fill="#e9e0e9" d="M 249.0625 79.824219 C 248.679688 79.117188 248.171875 78.417969 247.121094 77.886719 L 232.082031 69.199219 C 231.875 69.078125 231.652344 68.988281 231.414062 68.929688 C 231.339844 68.910156 231.265625 68.910156 231.183594 68.898438 C 231.027344 68.871094 230.871094 68.84375 230.714844 68.84375 L 230.6875 68.84375 L 230.6875 68.851562 C 230.242188 68.859375 229.804688 68.980469 229.417969 69.199219 L 195.578125 88.742188 L 195.546875 88.679688 L 192.816406 90.261719 C 189.523438 92.160156 185.472656 92.160156 182.179688 90.261719 L 167.382812 81.722656 C 166.5625 81.246094 166.058594 80.367188 166.058594 79.417969 C 166.058594 78.46875 166.5625 77.589844 167.382812 77.113281 L 182.179688 68.578125 C 185.472656 66.675781 189.523438 66.675781 192.816406 68.578125 L 196.378906 70.632812 C 197.203125 71.109375 198.210938 71.109375 199.035156 70.632812 L 212.8125 62.679688 C 213.636719 62.207031 214.140625 61.328125 214.140625 60.378906 C 214.140625 59.429688 213.636719 58.550781 212.8125 58.074219 L 192.816406 46.527344 C 189.523438 44.628906 185.472656 44.628906 182.179688 46.527344 L 133.191406 74.8125 C 129.648438 76.859375 129.648438 81.972656 133.191406 84.023438 L 182.179688 112.304688 C 185.472656 114.203125 189.523438 114.203125 192.816406 112.304688 L 230.6875 90.441406 L 230.6875 140.246094 L 218.519531 147.292969 L 192.816406 162.179688 C 192 162.644531 191.132812 163 190.226562 163.246094 C 187.511719 163.964844 184.617188 163.582031 182.179688 162.179688 L 146.964844 141.847656 C 145.320312 140.898438 144.304688 139.140625 144.304688 137.242188 L 144.304688 108.210938 C 144.304688 107.257812 143.796875 106.375 142.976562 105.910156 L 129.203125 97.949219 C 128.378906 97.472656 127.367188 97.472656 126.542969 97.949219 C 125.71875 98.421875 125.214844 99.304688 125.214844 100.253906 L 125.214844 148.265625 C 125.214844 150.167969 126.226562 151.917969 127.875 152.875 L 182.179688 184.230469 C 183.773438 185.148438 185.582031 185.632812 187.421875 185.644531 L 187.460938 185.644531 C 187.71875 185.644531 187.980469 185.617188 188.238281 185.601562 C 188.441406 185.585938 188.640625 185.585938 188.839844 185.5625 C 189.113281 185.527344 189.390625 185.460938 189.65625 185.410156 C 189.84375 185.363281 190.027344 185.339844 190.207031 185.296875 C 190.503906 185.222656 190.785156 185.113281 191.066406 185.007812 C 191.230469 184.949219 191.386719 184.910156 191.535156 184.851562 C 191.972656 184.671875 192.402344 184.464844 192.808594 184.230469 L 239.664062 157.175781 L 247.089844 152.964844 C 248.753906 152.019531 249.785156 150.253906 249.785156 148.339844 L 249.785156 82.484375 C 249.785156 81.535156 249.523438 80.621094 249.0625 79.824219 " fill-opacity="1" fill-rule="nonzero"/><g clip-path="url(#4607905cfd)"><path fill="#9492a3" d="M 192.683594 30.625 C 191.101562 29.714844 189.324219 29.226562 187.496094 29.210938 C 185.679688 29.226562 183.890625 29.714844 182.3125 30.625 L 116.875 68.40625 C 113.59375 70.300781 111.570312 73.800781 111.570312 77.589844 L 111.570312 153.160156 C 111.570312 156.949219 113.589844 160.453125 116.875 162.34375 L 182.3125 200.125 C 183.914062 201.050781 185.722656 201.539062 187.570312 201.546875 C 189.417969 201.539062 191.238281 201.050781 192.839844 200.128906 L 257.988281 162.515625 C 261.269531 160.621094 263.292969 157.121094 263.292969 153.328125 L 263.292969 131.492188 C 263.289062 130.542969 263.800781 129.667969 264.613281 129.195312 L 278.488281 121.1875 C 279.304688 120.714844 280.320312 120.714844 281.136719 121.1875 C 281.960938 121.664062 282.464844 122.539062 282.464844 123.488281 L 282.464844 164.152344 C 282.457031 165.890625 282.027344 167.597656 281.210938 169.125 C 281.003906 170.125 279.914062 171.304688 278.371094 172.515625 C 278.339844 172.546875 278.296875 172.574219 278.257812 172.605469 C 274.34375 175.652344 267.859375 178.800781 266.707031 179.46875 L 192.839844 222.113281 C 191.183594 223.0625 189.300781 223.554688 187.394531 223.53125 L 187.3125 223.53125 L 187.3125 223.523438 C 185.554688 223.480469 183.832031 222.988281 182.3125 222.113281 L 97.832031 173.339844 C 94.550781 171.445312 92.53125 167.945312 92.527344 164.152344 L 92.527344 66.601562 C 92.527344 64.898438 92.746094 63.164062 93.492188 61.695312 C 93.59375 61.316406 94.617188 59.441406 96.726562 57.898438 C 97.523438 57.363281 98.929688 56.644531 100.246094 55.882812 L 182.074219 8.640625 C 183.722656 7.691406 185.597656 7.203125 187.5 7.226562 C 189.40625 7.203125 191.273438 7.691406 192.921875 8.640625 L 268.429688 52.230469 C 268.601562 52.335938 268.734375 52.460938 268.882812 52.582031 L 269.839844 53.128906 C 272.40625 54.488281 276.425781 56.5625 278.609375 58.21875 L 278.785156 58.355469 C 278.816406 58.375 278.847656 58.398438 278.875 58.417969 C 278.949219 58.480469 279.003906 58.546875 279.078125 58.613281 C 279.878906 59.28125 280.558594 60.070312 281.085938 60.949219 C 281.101562 60.960938 281.109375 60.976562 281.125 60.988281 L 281.117188 60.992188 C 282 62.464844 282.46875 64.148438 282.46875 65.867188 L 282.46875 101.585938 C 282.46875 102.535156 281.960938 103.410156 281.140625 103.886719 L 267.265625 111.898438 C 266.449219 112.367188 265.433594 112.367188 264.617188 111.898438 C 263.792969 111.421875 263.289062 110.546875 263.289062 109.597656 L 263.289062 77.386719 C 263.289062 73.59375 261.261719 70.085938 257.976562 68.191406 L 192.683594 30.621094 Z M 192.683594 30.625 " fill-opacity="1" fill-rule="nonzero"/></g></svg>