<?xml version="1.0" standalone="no"?>
<!DOCTYPE svg PUBLIC "-//W3C//DTD SVG 20010904//EN"
 "http://www.w3.org/TR/2001/REC-SVG-20010904/DTD/svg10.dtd">
<svg version="1.0" xmlns="http://www.w3.org/2000/svg"
 width="512.000000pt" height="512.000000pt" viewBox="0 0 512.000000 512.000000"
 preserveAspectRatio="xMidYMid meet">

<g transform="translate(0.000000,512.000000) scale(0.100000,-0.100000)"
fill="#000000" stroke="none">
<path d="M610 4795 c-282 -61 -494 -256 -581 -535 -34 -107 -34 -292 0 -400
65 -210 205 -376 395 -469 120 -59 191 -75 331 -76 170 0 280 31 415 120 92
59 163 134 235 245 68 106 101 138 184 179 85 43 143 51 371 51 228 0 286 -8
371 -51 83 -41 116 -73 184 -180 35 -53 89 -122 121 -153 298 -291 769 -286
1058 12 134 137 200 287 213 482 30 471 -397 855 -867 779 -216 -35 -394 -156
-525 -358 -67 -104 -101 -139 -176 -177 -92 -46 -147 -54 -379 -54 -229 0
-288 8 -373 51 -75 39 -119 81 -183 180 -75 116 -150 193 -250 255 -161 100
-364 137 -544 99z m2700 -735 l0 -150 -150 0 -150 0 0 150 0 150 150 0 150 0
0 -150z"/>
<path d="M1810 3294 c-155 -33 -280 -104 -390 -220 -109 -115 -163 -218 -194
-366 -98 -475 292 -926 774 -895 260 17 455 136 605 367 68 106 101 138 184
179 85 43 143 51 371 51 228 0 286 -8 371 -51 83 -41 116 -73 184 -180 134
-206 310 -325 535 -360 87 -13 219 -6 305 16 198 53 383 201 479 385 61 117
81 199 81 340 0 141 -20 223 -81 340 -96 184 -281 332 -479 385 -86 22 -218
29 -305 16 -225 -35 -401 -154 -535 -360 -67 -104 -101 -139 -176 -177 -92
-46 -147 -54 -379 -54 -229 0 -288 8 -373 51 -75 39 -119 81 -183 180 -75 116
-150 193 -250 255 -161 100 -364 137 -544 98z m300 -734 l0 -150 -150 0 -150
0 0 150 0 150 150 0 150 0 0 -150z"/>
<path d="M610 1795 c-282 -61 -494 -256 -581 -535 -34 -107 -34 -292 0 -400
65 -210 205 -376 395 -469 120 -59 191 -75 331 -76 170 0 280 31 415 120 92
59 163 134 235 245 68 106 101 138 184 179 85 43 143 51 371 51 228 0 286 -8
371 -51 83 -41 116 -73 184 -180 35 -53 89 -122 121 -153 298 -291 769 -286
1058 12 134 137 200 287 213 482 30 471 -397 855 -867 779 -216 -35 -394 -156
-525 -358 -67 -104 -101 -139 -176 -177 -92 -46 -147 -54 -379 -54 -229 0
-288 8 -373 51 -75 39 -119 81 -183 180 -75 116 -150 193 -250 255 -161 100
-364 137 -544 99z m2700 -735 l0 -150 -150 0 -150 0 0 150 0 150 150 0 150 0
0 -150z"/>
</g>
</svg>
